<?xml version="1.0" encoding="utf-8"?>
<!-- Generator: Adobe Illustrator 24.0.1, SVG Export Plug-In . SVG Version: 6.00 Build 0)  -->
<svg version="1.1" id="Layer_1" xmlns="http://www.w3.org/2000/svg" xmlns:xlink="http://www.w3.org/1999/xlink" x="0px" y="0px"
	 viewBox="0 0 1366 1366" style="enable-background:new 0 0 1366 1366;" xml:space="preserve">
<g>
	<path d="M144.73,937.07h82.18c13.7,0,15.52-1.83,15.52-15.52V298.8h-8.22c-96.79,0-157.97,72.14-195.41,226.45
		c-0.91,3.65-2.74,5.48-8.22,5.48c-7.31,0-7.31-1.83-7.31-5.48V297.89c0-11.87,5.48-15.52,17.35-15.52h570.7
		c12.78,0,17.35,5.48,17.35,17.35v225.54c0,3.65-0.91,5.48-8.22,5.48c-5.48,0-7.3-1.83-8.22-5.48
		C574.8,370.94,516.36,298.8,419.57,298.8h-10.04v622.75c0,13.7,1.83,15.52,15.52,15.52h83.09c3.65,0,5.48,0.91,5.48,8.22
		c0,7.3-1.83,8.22-5.48,8.22H144.73c-3.65,0-5.48-0.91-5.48-8.22C139.25,937.98,141.07,937.07,144.73,937.07z"/>
	<path d="M663.36,937.07h56.61c13.7,0,15.52-1.83,15.52-15.52V314.33c0-13.7-1.83-15.52-15.52-15.52h-54.79
		c-3.65,0-5.48-0.91-5.48-8.22c0-7.31,1.83-8.22,5.48-8.22h334.2c179.88,0,343.33,133.31,343.33,332.37
		c0,197.23-144.27,338.77-343.33,338.77H663.36c-3.65,0-5.48-0.91-5.48-8.22C657.88,937.98,659.71,937.07,663.36,937.07z
		 M1108.96,348.11c-25.57-35.61-63-49.31-109.57-49.31h-81.27c-13.7,0-15.52,1.83-15.52,15.52v607.22c0,13.7,1.83,15.52,15.52,15.52
		h81.27c55.7,0,91.31-20.09,111.4-51.13c29.22-46.57,47.48-125.1,47.48-273.02C1158.27,468.64,1142.75,395.59,1108.96,348.11z"/>
</g>
</svg>
